<svg width="15" height="15" viewBox="0 0 15 15" fill="none" xmlns="http://www.w3.org/2000/svg">
<path d="M14.3183 5.52633H6.88747V9.07895H10.6247C10.1223 10.5525 8.90474 11.4474 7.34892 11.4474C5.26891 11.4474 3.44373 9.60199 3.44373 7.49845C3.44373 5.39648 5.26891 3.55267 7.34892 3.55267C8.34338 3.55267 9.18405 3.88032 9.7802 4.49963L10.0507 4.78106L12.6133 2.1375L12.3347 1.85842C11.1217 0.642619 9.39798 0 7.34896 0C3.22832 4.62582e-05 0 3.29372 0 7.49845C0 11.7048 3.22832 15 7.34892 15C11.1473 15 13.8461 12.7011 14.3921 9.00041C14.4633 8.52039 14.4996 8.01515 14.5 7.49845C14.5 6.93123 14.4529 6.31581 14.3741 5.85277L14.3183 5.52633Z" fill="white"/>
</svg>
