<svg width="22" height="18" viewBox="0 0 22 18" fill="none" xmlns="http://www.w3.org/2000/svg">
<path fill-rule="evenodd" clip-rule="evenodd" d="M18.4922 5.06583C18.4922 5.24029 18.4922 5.41514 18.4922 5.5904C18.4922 11.0547 14.4682 17.3058 7.14118 17.3058C4.85412 17.3058 2.77882 16.6501 1 15.4698C1.29647 15.5135 1.63529 15.5135 1.97412 15.5135C3.83765 15.5135 5.57412 14.8578 6.92941 13.765C5.19294 13.7213 3.71059 12.541 3.20235 10.8794C3.41412 10.9673 3.66824 10.9673 3.92235 10.9673C4.30353 10.9673 4.64235 10.9235 4.98118 10.8357C3.16 10.4427 1.80471 8.78114 1.80471 6.77069V6.72698C2.31294 7.03257 2.94824 7.20783 3.58353 7.25155C2.52471 6.5084 1.80471 5.24029 1.80471 3.79771C1.80471 3.05457 2.01647 2.35514 2.35529 1.74314C4.34588 4.23486 7.26824 5.896 10.6141 6.02755C10.5294 5.76486 10.4871 5.41514 10.4871 5.10955C10.4871 2.836 12.2659 1 14.5106 1C15.6541 1 16.671 1.48086 17.391 2.26812C18.3224 2.09286 19.1698 1.74314 19.9318 1.306C19.6357 2.26812 19 3.05457 18.1957 3.57914C19 3.4484 19.7624 3.22943 20.4827 2.92343C19.9318 3.754 19.2541 4.45343 18.4922 5.06583" fill="white"/>
<path d="M18.4922 5.06583C18.4922 5.24029 18.4922 5.41514 18.4922 5.5904C18.4922 11.0547 14.4682 17.3058 7.14118 17.3058C4.85412 17.3058 2.77882 16.6501 1 15.4698C1.29647 15.5135 1.63529 15.5135 1.97412 15.5135C3.83765 15.5135 5.57412 14.8578 6.92941 13.765C5.19294 13.7213 3.71059 12.541 3.20235 10.8794C3.41412 10.9673 3.66824 10.9673 3.92235 10.9673C4.30353 10.9673 4.64235 10.9235 4.98118 10.8357C3.16 10.4427 1.80471 8.78114 1.80471 6.77069V6.72698C2.31294 7.03257 2.94824 7.20783 3.58353 7.25155C2.52471 6.5084 1.80471 5.24029 1.80471 3.79771C1.80471 3.05457 2.01647 2.35514 2.35529 1.74314C4.34588 4.23486 7.26824 5.896 10.6141 6.02755C10.5294 5.76486 10.4871 5.41514 10.4871 5.10955C10.4871 2.836 12.2659 1 14.5106 1C15.6541 1 16.671 1.48086 17.391 2.26812C18.3224 2.09286 19.1698 1.74314 19.9318 1.306C19.6357 2.26812 19 3.05457 18.1957 3.57914C19 3.4484 19.7624 3.22943 20.4827 2.92343C19.9318 3.754 19.2541 4.45343 18.4922 5.06583" stroke="black"/>
</svg>
